<mxfile host="app.diagrams.net" modified="2023-08-03T13:25:46.111Z" agent="Mozilla/5.0 (Windows NT 10.0; Win64; x64) AppleWebKit/537.36 (KHTML, like Gecko) Chrome/115.0.0.0 Safari/537.36 Edg/115.0.1901.188" etag="MqbDQ2BAg4GZOGXtbnV5" version="21.6.6" type="device">
  <diagram name="第 1 页" id="j4Ayk4w0ZU4PHgHnbjkG">
    <mxGraphModel dx="996" dy="581" grid="1" gridSize="10" guides="1" tooltips="1" connect="1" arrows="1" fold="1" page="1" pageScale="1" pageWidth="827" pageHeight="1169" math="0" shadow="0">
      <root>
        <mxCell id="0" />
        <mxCell id="1" parent="0" />
        <mxCell id="HRl8YqwhyFZECqAqzE87-7" style="edgeStyle=orthogonalEdgeStyle;rounded=0;orthogonalLoop=1;jettySize=auto;html=1;entryX=1;entryY=0.75;entryDx=0;entryDy=0;" edge="1" parent="1" source="HRl8YqwhyFZECqAqzE87-1" target="HRl8YqwhyFZECqAqzE87-3">
          <mxGeometry relative="1" as="geometry">
            <Array as="points">
              <mxPoint x="540" y="215" />
              <mxPoint x="540" y="510" />
              <mxPoint x="474" y="510" />
            </Array>
          </mxGeometry>
        </mxCell>
        <mxCell id="HRl8YqwhyFZECqAqzE87-12" value="false" style="edgeLabel;html=1;align=center;verticalAlign=middle;resizable=0;points=[];" vertex="1" connectable="0" parent="HRl8YqwhyFZECqAqzE87-7">
          <mxGeometry x="-0.2176" y="-3" relative="1" as="geometry">
            <mxPoint x="23" as="offset" />
          </mxGeometry>
        </mxCell>
        <mxCell id="HRl8YqwhyFZECqAqzE87-8" style="edgeStyle=orthogonalEdgeStyle;rounded=0;orthogonalLoop=1;jettySize=auto;html=1;entryX=0.5;entryY=0;entryDx=0;entryDy=0;" edge="1" parent="1" source="HRl8YqwhyFZECqAqzE87-1" target="HRl8YqwhyFZECqAqzE87-2">
          <mxGeometry relative="1" as="geometry" />
        </mxCell>
        <mxCell id="HRl8YqwhyFZECqAqzE87-11" value="true" style="edgeLabel;html=1;align=center;verticalAlign=middle;resizable=0;points=[];" vertex="1" connectable="0" parent="HRl8YqwhyFZECqAqzE87-8">
          <mxGeometry x="-0.26" y="-2" relative="1" as="geometry">
            <mxPoint x="-13" as="offset" />
          </mxGeometry>
        </mxCell>
        <mxCell id="HRl8YqwhyFZECqAqzE87-1" value="布尔表达式" style="rhombus;whiteSpace=wrap;html=1;" vertex="1" parent="1">
          <mxGeometry x="380" y="190" width="99" height="50" as="geometry" />
        </mxCell>
        <mxCell id="HRl8YqwhyFZECqAqzE87-9" style="edgeStyle=orthogonalEdgeStyle;rounded=0;orthogonalLoop=1;jettySize=auto;html=1;entryX=0.5;entryY=0;entryDx=0;entryDy=0;" edge="1" parent="1" source="HRl8YqwhyFZECqAqzE87-2" target="HRl8YqwhyFZECqAqzE87-3">
          <mxGeometry relative="1" as="geometry" />
        </mxCell>
        <mxCell id="HRl8YqwhyFZECqAqzE87-10" style="edgeStyle=orthogonalEdgeStyle;rounded=0;orthogonalLoop=1;jettySize=auto;html=1;" edge="1" parent="1" source="HRl8YqwhyFZECqAqzE87-2">
          <mxGeometry relative="1" as="geometry">
            <mxPoint x="429.5" y="110" as="targetPoint" />
            <Array as="points">
              <mxPoint x="310" y="360" />
              <mxPoint x="310" y="110" />
            </Array>
          </mxGeometry>
        </mxCell>
        <mxCell id="HRl8YqwhyFZECqAqzE87-2" value="循环体" style="rounded=1;whiteSpace=wrap;html=1;" vertex="1" parent="1">
          <mxGeometry x="385" y="340" width="89" height="40" as="geometry" />
        </mxCell>
        <mxCell id="HRl8YqwhyFZECqAqzE87-3" value="其余代码" style="rounded=1;whiteSpace=wrap;html=1;" vertex="1" parent="1">
          <mxGeometry x="385" y="490" width="89" height="40" as="geometry" />
        </mxCell>
        <mxCell id="HRl8YqwhyFZECqAqzE87-6" value="" style="endArrow=classic;html=1;rounded=0;entryX=0.5;entryY=0;entryDx=0;entryDy=0;" edge="1" parent="1" target="HRl8YqwhyFZECqAqzE87-1">
          <mxGeometry width="50" height="50" relative="1" as="geometry">
            <mxPoint x="430" y="70" as="sourcePoint" />
            <mxPoint x="440" y="280" as="targetPoint" />
          </mxGeometry>
        </mxCell>
        <mxCell id="HRl8YqwhyFZECqAqzE87-13" value="While" style="text;html=1;strokeColor=none;fillColor=none;align=center;verticalAlign=middle;whiteSpace=wrap;rounded=0;" vertex="1" parent="1">
          <mxGeometry x="170" y="20" width="170" height="60" as="geometry" />
        </mxCell>
        <mxCell id="HRl8YqwhyFZECqAqzE87-14" value="For" style="text;html=1;strokeColor=none;fillColor=none;align=center;verticalAlign=middle;whiteSpace=wrap;rounded=0;" vertex="1" parent="1">
          <mxGeometry x="150" y="570" width="180" height="70" as="geometry" />
        </mxCell>
        <mxCell id="HRl8YqwhyFZECqAqzE87-21" style="edgeStyle=orthogonalEdgeStyle;rounded=0;orthogonalLoop=1;jettySize=auto;html=1;entryX=0.5;entryY=0;entryDx=0;entryDy=0;" edge="1" parent="1" source="HRl8YqwhyFZECqAqzE87-15" target="HRl8YqwhyFZECqAqzE87-16">
          <mxGeometry relative="1" as="geometry" />
        </mxCell>
        <mxCell id="HRl8YqwhyFZECqAqzE87-15" value="表达式1" style="rounded=1;whiteSpace=wrap;html=1;" vertex="1" parent="1">
          <mxGeometry x="370" y="670" width="80" height="30" as="geometry" />
        </mxCell>
        <mxCell id="HRl8YqwhyFZECqAqzE87-22" style="edgeStyle=orthogonalEdgeStyle;rounded=0;orthogonalLoop=1;jettySize=auto;html=1;entryX=0.5;entryY=0;entryDx=0;entryDy=0;" edge="1" parent="1" source="HRl8YqwhyFZECqAqzE87-16" target="HRl8YqwhyFZECqAqzE87-17">
          <mxGeometry relative="1" as="geometry" />
        </mxCell>
        <mxCell id="HRl8YqwhyFZECqAqzE87-27" value="true" style="edgeLabel;html=1;align=center;verticalAlign=middle;resizable=0;points=[];" vertex="1" connectable="0" parent="HRl8YqwhyFZECqAqzE87-22">
          <mxGeometry x="-0.1" y="3" relative="1" as="geometry">
            <mxPoint x="17" as="offset" />
          </mxGeometry>
        </mxCell>
        <mxCell id="HRl8YqwhyFZECqAqzE87-25" style="edgeStyle=orthogonalEdgeStyle;rounded=0;orthogonalLoop=1;jettySize=auto;html=1;entryX=1;entryY=0.75;entryDx=0;entryDy=0;" edge="1" parent="1" source="HRl8YqwhyFZECqAqzE87-16" target="HRl8YqwhyFZECqAqzE87-18">
          <mxGeometry relative="1" as="geometry">
            <Array as="points">
              <mxPoint x="530" y="795" />
              <mxPoint x="530" y="1103" />
            </Array>
          </mxGeometry>
        </mxCell>
        <mxCell id="HRl8YqwhyFZECqAqzE87-26" value="false" style="edgeLabel;html=1;align=center;verticalAlign=middle;resizable=0;points=[];" vertex="1" connectable="0" parent="HRl8YqwhyFZECqAqzE87-25">
          <mxGeometry x="-0.0426" relative="1" as="geometry">
            <mxPoint x="20" y="-14" as="offset" />
          </mxGeometry>
        </mxCell>
        <mxCell id="HRl8YqwhyFZECqAqzE87-16" value="表达式2" style="rhombus;whiteSpace=wrap;html=1;" vertex="1" parent="1">
          <mxGeometry x="360" y="760" width="100" height="70" as="geometry" />
        </mxCell>
        <mxCell id="HRl8YqwhyFZECqAqzE87-23" style="edgeStyle=orthogonalEdgeStyle;rounded=0;orthogonalLoop=1;jettySize=auto;html=1;entryX=0.5;entryY=0;entryDx=0;entryDy=0;" edge="1" parent="1" source="HRl8YqwhyFZECqAqzE87-17" target="HRl8YqwhyFZECqAqzE87-19">
          <mxGeometry relative="1" as="geometry" />
        </mxCell>
        <mxCell id="HRl8YqwhyFZECqAqzE87-17" value="循环体" style="rounded=1;whiteSpace=wrap;html=1;" vertex="1" parent="1">
          <mxGeometry x="370" y="898" width="80" height="30" as="geometry" />
        </mxCell>
        <mxCell id="HRl8YqwhyFZECqAqzE87-18" value="其余代码" style="rounded=1;whiteSpace=wrap;html=1;" vertex="1" parent="1">
          <mxGeometry x="370" y="1080" width="80" height="30" as="geometry" />
        </mxCell>
        <mxCell id="HRl8YqwhyFZECqAqzE87-24" style="edgeStyle=orthogonalEdgeStyle;rounded=0;orthogonalLoop=1;jettySize=auto;html=1;entryX=0.5;entryY=0;entryDx=0;entryDy=0;" edge="1" parent="1" source="HRl8YqwhyFZECqAqzE87-19" target="HRl8YqwhyFZECqAqzE87-18">
          <mxGeometry relative="1" as="geometry" />
        </mxCell>
        <mxCell id="HRl8YqwhyFZECqAqzE87-19" value="表达式3" style="rounded=1;whiteSpace=wrap;html=1;" vertex="1" parent="1">
          <mxGeometry x="370" y="990" width="80" height="30" as="geometry" />
        </mxCell>
        <mxCell id="HRl8YqwhyFZECqAqzE87-20" value="" style="endArrow=classic;html=1;rounded=0;entryX=0.5;entryY=0;entryDx=0;entryDy=0;" edge="1" parent="1" target="HRl8YqwhyFZECqAqzE87-15">
          <mxGeometry width="50" height="50" relative="1" as="geometry">
            <mxPoint x="410" y="610" as="sourcePoint" />
            <mxPoint x="410" y="590" as="targetPoint" />
          </mxGeometry>
        </mxCell>
        <mxCell id="HRl8YqwhyFZECqAqzE87-30" value="" style="endArrow=classic;html=1;rounded=0;exitX=0;exitY=0.5;exitDx=0;exitDy=0;" edge="1" parent="1" source="HRl8YqwhyFZECqAqzE87-19">
          <mxGeometry width="50" height="50" relative="1" as="geometry">
            <mxPoint x="390" y="870" as="sourcePoint" />
            <mxPoint x="410" y="730" as="targetPoint" />
            <Array as="points">
              <mxPoint x="260" y="1005" />
              <mxPoint x="260" y="850" />
              <mxPoint x="260" y="730" />
            </Array>
          </mxGeometry>
        </mxCell>
        <mxCell id="HRl8YqwhyFZECqAqzE87-31" value="do-while" style="text;html=1;strokeColor=none;fillColor=none;align=center;verticalAlign=middle;whiteSpace=wrap;rounded=0;" vertex="1" parent="1">
          <mxGeometry x="170" y="1220" width="60" height="30" as="geometry" />
        </mxCell>
        <mxCell id="HRl8YqwhyFZECqAqzE87-36" style="edgeStyle=orthogonalEdgeStyle;rounded=0;orthogonalLoop=1;jettySize=auto;html=1;entryX=0.5;entryY=0;entryDx=0;entryDy=0;" edge="1" parent="1" source="HRl8YqwhyFZECqAqzE87-32" target="HRl8YqwhyFZECqAqzE87-34">
          <mxGeometry relative="1" as="geometry" />
        </mxCell>
        <mxCell id="HRl8YqwhyFZECqAqzE87-32" value="循环体" style="rounded=1;whiteSpace=wrap;html=1;" vertex="1" parent="1">
          <mxGeometry x="340" y="1270" width="100" height="50" as="geometry" />
        </mxCell>
        <mxCell id="HRl8YqwhyFZECqAqzE87-33" value="其余代码" style="rounded=1;whiteSpace=wrap;html=1;" vertex="1" parent="1">
          <mxGeometry x="340" y="1550" width="100" height="50" as="geometry" />
        </mxCell>
        <mxCell id="HRl8YqwhyFZECqAqzE87-37" style="edgeStyle=orthogonalEdgeStyle;rounded=0;orthogonalLoop=1;jettySize=auto;html=1;entryX=1;entryY=0.5;entryDx=0;entryDy=0;" edge="1" parent="1" source="HRl8YqwhyFZECqAqzE87-34" target="HRl8YqwhyFZECqAqzE87-33">
          <mxGeometry relative="1" as="geometry">
            <Array as="points">
              <mxPoint x="500" y="1430" />
              <mxPoint x="500" y="1575" />
            </Array>
          </mxGeometry>
        </mxCell>
        <mxCell id="HRl8YqwhyFZECqAqzE87-38" style="edgeStyle=orthogonalEdgeStyle;rounded=0;orthogonalLoop=1;jettySize=auto;html=1;" edge="1" parent="1" source="HRl8YqwhyFZECqAqzE87-34">
          <mxGeometry relative="1" as="geometry">
            <mxPoint x="390" y="1230" as="targetPoint" />
            <Array as="points">
              <mxPoint x="280" y="1430" />
              <mxPoint x="280" y="1230" />
            </Array>
          </mxGeometry>
        </mxCell>
        <mxCell id="HRl8YqwhyFZECqAqzE87-39" value="true" style="edgeLabel;html=1;align=center;verticalAlign=middle;resizable=0;points=[];" vertex="1" connectable="0" parent="HRl8YqwhyFZECqAqzE87-38">
          <mxGeometry x="-0.3989" y="-3" relative="1" as="geometry">
            <mxPoint x="17" y="-9" as="offset" />
          </mxGeometry>
        </mxCell>
        <mxCell id="HRl8YqwhyFZECqAqzE87-34" value="布尔表达式" style="rhombus;whiteSpace=wrap;html=1;" vertex="1" parent="1">
          <mxGeometry x="340" y="1400" width="100" height="60" as="geometry" />
        </mxCell>
        <mxCell id="HRl8YqwhyFZECqAqzE87-35" value="" style="endArrow=classic;html=1;rounded=0;entryX=0.5;entryY=0;entryDx=0;entryDy=0;" edge="1" parent="1" target="HRl8YqwhyFZECqAqzE87-32">
          <mxGeometry width="50" height="50" relative="1" as="geometry">
            <mxPoint x="390" y="1180" as="sourcePoint" />
            <mxPoint x="440" y="1370" as="targetPoint" />
          </mxGeometry>
        </mxCell>
        <mxCell id="HRl8YqwhyFZECqAqzE87-40" value="false" style="text;html=1;align=center;verticalAlign=middle;resizable=0;points=[];autosize=1;strokeColor=none;fillColor=none;" vertex="1" parent="1">
          <mxGeometry x="500" y="1488" width="50" height="30" as="geometry" />
        </mxCell>
      </root>
    </mxGraphModel>
  </diagram>
</mxfile>
